<svg height="512pt" viewBox="0 0 512.01012 512" width="512pt" xmlns="http://www.w3.org/2000/svg"><path d="m17.65625.00390625h353.101562c9.75 0 17.65625 7.90624975 17.65625 17.65624975v264.828125c0 9.75-7.90625 17.65625-17.65625 17.65625h-353.101562c-9.75 0-17.65625-7.90625-17.65625-17.65625v-264.828125c0-9.75 7.90625-17.65624975 17.65625-17.65624975zm0 0" fill="#a5b4b4"/><path d="m0 44.144531h388.414062v211.859375h-388.414062zm0 0" fill="#445c71"/><path d="m388.414062 148.484375v107.519531h-388.414062v-71.414062c59.144531-46.34375 181.40625-103.195313 388.414062-36.105469zm0 0" fill="#394f63"/><path d="m476.691406 370.765625v61.792969c-15.140625-.121094-30.117187-3.117188-44.140625-8.828125l-2.734375-1.414063c4.824219-6.429687 8.335938-13.75 10.328125-21.539062 2.085938-10.765625 8.84375-20.046875 18.449219-25.335938 5.566406-2.996094 11.773438-4.601562 18.097656-4.675781zm0 0" fill="#fe9189"/><path d="m512 408.28125v15.449219c-10.929688 5.632812-23.015625 8.65625-35.308594 8.828125v-61.792969c1.472656 0 2.945313.089844 4.410156.261719 18.148438 2.980468 31.328126 18.871094 30.898438 37.253906zm0 0" fill="#944143"/><path d="m512 423.730469v44.136719c0 17.65625-8.828125 44.136718-44.136719 44.136718-35.3125 0-52.964843-17.652344-52.964843-44.136718-.503907-16.460938 4.773437-32.578126 14.917968-45.550782l2.734375 1.414063c14.023438 5.710937 29 8.707031 44.140625 8.828125 12.292969-.171875 24.378906-3.195313 35.308594-8.828125zm0 0" fill="#d8625e"/><path d="m432.550781 344.28125c-2.339843 0-4.585937-.929688-6.238281-2.585938l-8.828125-8.828124c-3.347656-3.464844-3.300781-8.96875.105469-12.375s8.910156-3.453126 12.375-.109376l8.828125 8.828126c2.523437 2.527343 3.277343 6.320312 1.914062 9.621093-1.367187 3.296875-4.585937 5.449219-8.15625 5.449219zm0 0" fill="#fe9189"/><path d="m414.898438 370.765625h-17.65625c-4.875 0-8.828126-3.953125-8.828126-8.828125s3.953126-8.828125 8.828126-8.828125h17.65625c4.875 0 8.824218 3.953125 8.824218 8.828125s-3.949218 8.828125-8.824218 8.828125zm0 0" fill="#fe9189"/><path d="m247.171875 353.109375h-88.273437l17.652343-52.964844h52.964844zm0 0" fill="#919d9e"/><path d="m238.34375 229.523438h-70.621094c-4.875 0-8.824218-3.953126-8.824218-8.828126s3.949218-8.828124 8.824218-8.828124h70.621094c4.875 0 8.828125 3.953124 8.828125 8.828124s-3.953125 8.828126-8.828125 8.828126zm0 0" fill="#d8625e"/><path d="m70.621094 88.28125h-35.3125c-4.875 0-8.824219-3.953125-8.824219-8.828125s3.949219-8.828125 8.824219-8.828125h35.3125c4.875 0 8.828125 3.953125 8.828125 8.828125s-3.953125 8.828125-8.828125 8.828125zm0 0" fill="#f4cd1e"/><path d="m141.242188 88.28125h-35.3125c-4.875 0-8.828126-3.953125-8.828126-8.828125s3.953126-8.828125 8.828126-8.828125h35.3125c4.875 0 8.828124 3.953125 8.828124 8.828125s-3.953124 8.828125-8.828124 8.828125zm0 0" fill="#f4cd1e"/><path d="m105.929688 123.589844h-35.308594c-4.875 0-8.828125-3.949219-8.828125-8.824219 0-4.878906 3.953125-8.828125 8.828125-8.828125h35.308594c4.875 0 8.828124 3.949219 8.828124 8.828125 0 4.875-3.953124 8.824219-8.828124 8.824219zm0 0" fill="#5496ce"/><path d="m176.550781 123.589844h-35.308593c-4.875 0-8.828126-3.949219-8.828126-8.824219 0-4.878906 3.953126-8.828125 8.828126-8.828125h35.308593c4.875 0 8.828125 3.949219 8.828125 8.828125 0 4.875-3.953125 8.824219-8.828125 8.824219zm0 0" fill="#5496ce"/><path d="m247.171875 123.589844h-35.308594c-4.875 0-8.828125-3.949219-8.828125-8.824219 0-4.878906 3.953125-8.828125 8.828125-8.828125h35.308594c4.875 0 8.828125 3.949219 8.828125 8.828125 0 4.875-3.953125 8.824219-8.828125 8.824219zm0 0" fill="#5496ce"/><path d="m141.242188 158.902344h-35.3125c-4.875 0-8.828126-3.953125-8.828126-8.828125s3.953126-8.828125 8.828126-8.828125h35.3125c4.875 0 8.828124 3.953125 8.828124 8.828125s-3.953124 8.828125-8.828124 8.828125zm0 0" fill="#f4cd1e"/><path d="m317.792969 123.589844h-35.308594c-4.878906 0-8.828125-3.949219-8.828125-8.824219 0-4.878906 3.949219-8.828125 8.828125-8.828125h35.308594c4.875 0 8.828125 3.949219 8.828125 8.828125 0 4.875-3.953125 8.824219-8.828125 8.824219zm0 0" fill="#5496ce"/><path d="m211.863281 88.28125h-35.3125c-4.875 0-8.828125-3.953125-8.828125-8.828125s3.953125-8.828125 8.828125-8.828125h35.3125c4.875 0 8.828125 3.953125 8.828125 8.828125s-3.953125 8.828125-8.828125 8.828125zm0 0" fill="#f4cd1e"/><path d="m282.484375 88.28125h-35.3125c-4.875 0-8.828125-3.953125-8.828125-8.828125s3.953125-8.828125 8.828125-8.828125h35.3125c4.875 0 8.824219 3.953125 8.824219 8.828125s-3.949219 8.828125-8.824219 8.828125zm0 0" fill="#f4cd1e"/><path d="m353.101562 88.28125h-35.308593c-4.875 0-8.828125-3.953125-8.828125-8.828125s3.953125-8.828125 8.828125-8.828125h35.308593c4.878907 0 8.828126 3.953125 8.828126 8.828125s-3.949219 8.828125-8.828126 8.828125zm0 0" fill="#f4cd1e"/><path d="m247.171875 185.382812c0 4.875-3.953125 8.828126-8.828125 8.828126s-8.828125-3.953126-8.828125-8.828126 3.953125-8.824218 8.828125-8.824218 8.828125 3.949218 8.828125 8.824218zm0 0" fill="#f0f3f4"/><path d="m26.484375 388.417969h317.792969c14.625 0 26.480468 11.859375 26.480468 26.484375v70.621094c0 14.625-11.855468 26.480468-26.480468 26.480468h-317.792969c-14.628906 0-26.484375-11.855468-26.484375-26.480468v-70.621094c0-14.625 11.855469-26.484375 26.484375-26.484375zm0 0" fill="#586270"/><g fill="#3a3e48"><path d="m273.65625 476.695312h-167.726562c-4.875 0-8.828126-3.953124-8.828126-8.828124s3.953126-8.828126 8.828126-8.828126h167.726562c4.875 0 8.828125 3.953126 8.828125 8.828126s-3.953125 8.828124-8.828125 8.828124zm0 0"/><path d="m70.621094 476.695312h-35.3125c-4.875 0-8.824219-3.953124-8.824219-8.828124s3.949219-8.828126 8.824219-8.828126h35.3125c4.875 0 8.828125 3.953126 8.828125 8.828126s-3.953125 8.828124-8.828125 8.828124zm0 0"/><path d="m52.964844 441.382812h-17.65625c-4.875 0-8.824219-3.949218-8.824219-8.824218 0-4.878906 3.949219-8.828125 8.824219-8.828125h17.65625c4.875 0 8.828125 3.949219 8.828125 8.828125 0 4.875-3.953125 8.824218-8.828125 8.824218zm0 0"/><path d="m105.929688 441.382812h-17.652344c-4.875 0-8.828125-3.949218-8.828125-8.824218 0-4.878906 3.953125-8.828125 8.828125-8.828125h17.652344c4.875 0 8.828124 3.949219 8.828124 8.828125 0 4.875-3.953124 8.824218-8.828124 8.824218zm0 0"/><path d="m158.898438 441.382812h-17.65625c-4.875 0-8.828126-3.949218-8.828126-8.824218 0-4.878906 3.953126-8.828125 8.828126-8.828125h17.65625c4.875 0 8.824218 3.949219 8.824218 8.828125 0 4.875-3.949218 8.824218-8.824218 8.824218zm0 0"/><path d="m211.863281 441.382812h-17.65625c-4.875 0-8.828125-3.949218-8.828125-8.824218 0-4.878906 3.953125-8.828125 8.828125-8.828125h17.65625c4.875 0 8.828125 3.949219 8.828125 8.828125 0 4.875-3.953125 8.824218-8.828125 8.824218zm0 0"/><path d="m264.828125 441.382812h-17.65625c-4.875 0-8.828125-3.949218-8.828125-8.824218 0-4.878906 3.953125-8.828125 8.828125-8.828125h17.65625c4.875 0 8.828125 3.949219 8.828125 8.828125 0 4.875-3.953125 8.824218-8.828125 8.824218zm0 0"/><path d="m344.277344 441.382812h-44.140625c-4.875 0-8.828125-3.949218-8.828125-8.824218 0-4.878906 3.953125-8.828125 8.828125-8.828125h44.140625c4.875 0 8.824218 3.949219 8.824218 8.828125 0 4.875-3.949218 8.824218-8.824218 8.824218zm0 0"/><path d="m344.277344 476.695312h-35.3125c-4.875 0-8.828125-3.953124-8.828125-8.828124s3.953125-8.828126 8.828125-8.828126h35.3125c4.875 0 8.824218 3.953126 8.824218 8.828126s-3.949218 8.828124-8.824218 8.828124zm0 0"/></g><path d="m264.828125 361.9375h-123.585937c-4.875 0-8.828126-3.953125-8.828126-8.828125s3.953126-8.828125 8.828126-8.828125h123.585937c4.875 0 8.828125 3.953125 8.828125 8.828125s-3.953125 8.828125-8.828125 8.828125zm0 0" fill="#a5b4b4"/></svg>