<?xml version="1.0" standalone="no"?>
<svg
  width="600"
  height="600"
  viewBox="0 0 600 600"
  xmlns="http://www.w3.org/2000/svg"
>
  <g transform="translate(300,300)">
    <path d="M136.5,-158.8C180,-126.2,220.5,-86.1,224.8,-42.5C229.1,1.2,197.3,48.3,170.2,101.3C143.2,154.2,121,212.9,81.2,230.6C41.4,248.4,-16.1,225.2,-70.7,202C-125.2,178.7,-176.9,155.3,-200.1,115.4C-223.3,75.5,-218,19,-205.5,-33.5C-193,-86,-173.3,-134.6,-137.9,-168.6C-102.4,-202.7,-51.2,-222.4,-2.4,-219.6C46.5,-216.7,93,-191.5,136.5,-158.8Z" fill="#8ed1fc" />
  </g>
</svg>
    